<mxfile modified="2021-06-15T15:18:28.084Z" host="app.diagrams.net" agent="5.0 (Macintosh; Intel Mac OS X 10_15_7) AppleWebKit/537.36 (KHTML, like Gecko) Chrome/91.0.4472.101 Safari/537.36" etag="gD6BlwprtNZHS-o_ZapA" version="14.7.8" type="github">
  <diagram id="Ht1M8jgEwFfnCIfOTk4-" name="Page-1">
    <mxGraphModel dx="4730" dy="3897" grid="1" gridSize="10" guides="1" tooltips="1" connect="1" arrows="1" fold="1" page="1" pageScale="1" pageWidth="1169" pageHeight="827" math="0" shadow="0">
      <root>
        <mxCell id="0" />
        <mxCell id="1" parent="0" />
        <mxCell id="UEzPUAAOIrF-is8g5C7q-175" value="AWS Cloud" style="points=[[0,0],[0.25,0],[0.5,0],[0.75,0],[1,0],[1,0.25],[1,0.5],[1,0.75],[1,1],[0.75,1],[0.5,1],[0.25,1],[0,1],[0,0.75],[0,0.5],[0,0.25]];outlineConnect=0;gradientColor=none;html=1;whiteSpace=wrap;fontSize=12;fontStyle=0;shape=mxgraph.aws4.group;grIcon=mxgraph.aws4.group_aws_cloud_alt;strokeColor=#232F3E;fillColor=none;verticalAlign=top;align=left;spacingLeft=30;fontColor=#232F3E;dashed=0;labelBackgroundColor=#ffffff;" parent="1" vertex="1">
          <mxGeometry x="220" y="-730" width="730" height="410" as="geometry" />
        </mxCell>
        <mxCell id="UEzPUAAOIrF-is8g5C7q-202" style="edgeStyle=orthogonalEdgeStyle;rounded=0;orthogonalLoop=1;jettySize=auto;html=1;startArrow=none;startFill=0;endArrow=open;endFill=0;strokeColor=#808080;strokeWidth=2;exitX=0.5;exitY=1;exitDx=0;exitDy=0;" parent="1" source="9RIisdlZwtpkyTJBOxY_-11" edge="1">
          <mxGeometry relative="1" as="geometry">
            <Array as="points">
              <mxPoint x="357" y="-740" />
              <mxPoint x="400" y="-740" />
              <mxPoint x="400" y="-310" />
              <mxPoint x="330" y="-310" />
            </Array>
            <mxPoint x="740.0666666666666" y="-422.10387321379153" as="sourcePoint" />
            <mxPoint x="330" y="-290" as="targetPoint" />
          </mxGeometry>
        </mxCell>
        <mxCell id="UEzPUAAOIrF-is8g5C7q-203" style="edgeStyle=orthogonalEdgeStyle;rounded=0;orthogonalLoop=1;jettySize=auto;html=1;startArrow=none;startFill=0;endArrow=open;endFill=0;strokeColor=#808080;strokeWidth=2;" parent="1" edge="1">
          <mxGeometry relative="1" as="geometry">
            <Array as="points">
              <mxPoint x="740" y="-310" />
              <mxPoint x="675" y="-310" />
            </Array>
            <mxPoint x="400" y="-310" as="sourcePoint" />
            <mxPoint x="675" y="-290" as="targetPoint" />
          </mxGeometry>
        </mxCell>
        <mxCell id="UEzPUAAOIrF-is8g5C7q-204" style="edgeStyle=orthogonalEdgeStyle;rounded=0;orthogonalLoop=1;jettySize=auto;html=1;entryX=0.5;entryY=0;entryDx=0;entryDy=0;startArrow=none;startFill=0;endArrow=open;endFill=0;strokeColor=#808080;strokeWidth=2;" parent="1" edge="1">
          <mxGeometry relative="1" as="geometry">
            <Array as="points">
              <mxPoint x="740" y="-310" />
              <mxPoint x="836" y="-310" />
            </Array>
            <mxPoint x="400" y="-310" as="sourcePoint" />
            <mxPoint x="836" y="-290" as="targetPoint" />
          </mxGeometry>
        </mxCell>
        <mxCell id="9RIisdlZwtpkyTJBOxY_-2" value="Digitalocean" style="fillColor=none;strokeColor=#5A6C86;dashed=1;verticalAlign=top;fontStyle=0;fontColor=#5A6C86;fontSize=14;" vertex="1" parent="1">
          <mxGeometry x="222.5" y="-290.5" width="218.5" height="270" as="geometry" />
        </mxCell>
        <mxCell id="9RIisdlZwtpkyTJBOxY_-3" value="Other IDC" style="fillColor=none;strokeColor=#5A6C86;dashed=1;verticalAlign=top;fontStyle=0;fontColor=#5A6C86;fontSize=14;" vertex="1" parent="1">
          <mxGeometry x="482.5" y="-290.5" width="218.5" height="270" as="geometry" />
        </mxCell>
        <mxCell id="9RIisdlZwtpkyTJBOxY_-4" value="Other IDC" style="fillColor=none;strokeColor=#5A6C86;dashed=1;verticalAlign=top;fontStyle=0;fontColor=#5A6C86;fontSize=14;" vertex="1" parent="1">
          <mxGeometry x="731.5" y="-290.5" width="218.5" height="270" as="geometry" />
        </mxCell>
        <mxCell id="9RIisdlZwtpkyTJBOxY_-5" value="" style="image;html=1;image=img/lib/clip_art/computers/Server_Rack_128x128.png" vertex="1" parent="1">
          <mxGeometry x="237" y="-220.5" width="80" height="80" as="geometry" />
        </mxCell>
        <mxCell id="9RIisdlZwtpkyTJBOxY_-6" value="" style="image;html=1;image=img/lib/clip_art/computers/Server_Rack_128x128.png" vertex="1" parent="1">
          <mxGeometry x="341" y="-220.5" width="80" height="80" as="geometry" />
        </mxCell>
        <mxCell id="9RIisdlZwtpkyTJBOxY_-7" value="" style="image;html=1;image=img/lib/clip_art/computers/Server_Rack_128x128.png" vertex="1" parent="1">
          <mxGeometry x="499.75" y="-220.5" width="80" height="80" as="geometry" />
        </mxCell>
        <mxCell id="9RIisdlZwtpkyTJBOxY_-8" value="" style="image;html=1;image=img/lib/clip_art/computers/Server_Rack_128x128.png" vertex="1" parent="1">
          <mxGeometry x="603.75" y="-220.5" width="80" height="80" as="geometry" />
        </mxCell>
        <mxCell id="9RIisdlZwtpkyTJBOxY_-9" value="" style="image;html=1;image=img/lib/clip_art/computers/Server_Rack_128x128.png" vertex="1" parent="1">
          <mxGeometry x="748.75" y="-220.5" width="80" height="80" as="geometry" />
        </mxCell>
        <mxCell id="9RIisdlZwtpkyTJBOxY_-10" value="" style="image;html=1;image=img/lib/clip_art/computers/Server_Rack_128x128.png" vertex="1" parent="1">
          <mxGeometry x="852.75" y="-220.5" width="80" height="80" as="geometry" />
        </mxCell>
        <mxCell id="9RIisdlZwtpkyTJBOxY_-48" style="edgeStyle=orthogonalEdgeStyle;rounded=0;orthogonalLoop=1;jettySize=auto;html=1;fontSize=14;startArrow=none;startFill=0;" edge="1" parent="1" source="9RIisdlZwtpkyTJBOxY_-11" target="9RIisdlZwtpkyTJBOxY_-46">
          <mxGeometry relative="1" as="geometry" />
        </mxCell>
        <mxCell id="9RIisdlZwtpkyTJBOxY_-11" value="" style="shape=actor;whiteSpace=wrap;html=1;" vertex="1" parent="1">
          <mxGeometry x="336.75" y="-810" width="40" height="60" as="geometry" />
        </mxCell>
        <mxCell id="9RIisdlZwtpkyTJBOxY_-44" style="edgeStyle=orthogonalEdgeStyle;rounded=0;orthogonalLoop=1;jettySize=auto;html=1;entryX=0.5;entryY=0;entryDx=0;entryDy=0;entryPerimeter=0;fontSize=14;startArrow=none;startFill=0;" edge="1" parent="1" source="9RIisdlZwtpkyTJBOxY_-12" target="9RIisdlZwtpkyTJBOxY_-23">
          <mxGeometry relative="1" as="geometry">
            <Array as="points">
              <mxPoint x="623" y="-700" />
              <mxPoint x="791" y="-700" />
            </Array>
          </mxGeometry>
        </mxCell>
        <mxCell id="9RIisdlZwtpkyTJBOxY_-47" style="edgeStyle=orthogonalEdgeStyle;rounded=0;orthogonalLoop=1;jettySize=auto;html=1;fontSize=14;startArrow=none;startFill=0;" edge="1" parent="1" source="9RIisdlZwtpkyTJBOxY_-12" target="9RIisdlZwtpkyTJBOxY_-46">
          <mxGeometry relative="1" as="geometry" />
        </mxCell>
        <mxCell id="9RIisdlZwtpkyTJBOxY_-12" value="" style="shape=actor;whiteSpace=wrap;html=1;" vertex="1" parent="1">
          <mxGeometry x="602.75" y="-810" width="40" height="60" as="geometry" />
        </mxCell>
        <mxCell id="9RIisdlZwtpkyTJBOxY_-13" value="&lt;font style=&quot;font-size: 14px&quot;&gt;User&lt;/font&gt;" style="text;html=1;align=center;verticalAlign=middle;resizable=0;points=[];autosize=1;strokeColor=none;" vertex="1" parent="1">
          <mxGeometry x="286.75" y="-800" width="50" height="20" as="geometry" />
        </mxCell>
        <mxCell id="9RIisdlZwtpkyTJBOxY_-14" value="VIP User" style="text;html=1;align=center;verticalAlign=middle;resizable=0;points=[];autosize=1;strokeColor=none;fontSize=14;" vertex="1" parent="1">
          <mxGeometry x="647.75" y="-800" width="70" height="20" as="geometry" />
        </mxCell>
        <mxCell id="9RIisdlZwtpkyTJBOxY_-29" value="" style="edgeStyle=orthogonalEdgeStyle;rounded=0;orthogonalLoop=1;jettySize=auto;html=1;fontSize=14;startArrow=none;startFill=0;" edge="1" parent="1" source="9RIisdlZwtpkyTJBOxY_-15" target="9RIisdlZwtpkyTJBOxY_-21">
          <mxGeometry relative="1" as="geometry" />
        </mxCell>
        <mxCell id="9RIisdlZwtpkyTJBOxY_-42" value="" style="edgeStyle=orthogonalEdgeStyle;rounded=0;orthogonalLoop=1;jettySize=auto;html=1;fontSize=14;startArrow=none;startFill=0;" edge="1" parent="1" source="9RIisdlZwtpkyTJBOxY_-15" target="9RIisdlZwtpkyTJBOxY_-35">
          <mxGeometry relative="1" as="geometry" />
        </mxCell>
        <mxCell id="9RIisdlZwtpkyTJBOxY_-15" value="" style="outlineConnect=0;dashed=0;verticalLabelPosition=bottom;verticalAlign=top;align=center;html=1;shape=mxgraph.aws3.ec2;fillColor=#F58534;gradientColor=none;" vertex="1" parent="1">
          <mxGeometry x="441.75" y="-611" width="76.5" height="93" as="geometry" />
        </mxCell>
        <mxCell id="9RIisdlZwtpkyTJBOxY_-28" value="" style="edgeStyle=orthogonalEdgeStyle;rounded=0;orthogonalLoop=1;jettySize=auto;html=1;fontSize=14;startArrow=classic;startFill=1;" edge="1" parent="1" source="9RIisdlZwtpkyTJBOxY_-17" target="9RIisdlZwtpkyTJBOxY_-18">
          <mxGeometry relative="1" as="geometry" />
        </mxCell>
        <mxCell id="9RIisdlZwtpkyTJBOxY_-17" value="Auth server" style="text;html=1;align=center;verticalAlign=middle;resizable=0;points=[];autosize=1;strokeColor=none;fontSize=14;" vertex="1" parent="1">
          <mxGeometry x="434.75" y="-506" width="90" height="20" as="geometry" />
        </mxCell>
        <mxCell id="9RIisdlZwtpkyTJBOxY_-18" value="" style="outlineConnect=0;dashed=0;verticalLabelPosition=bottom;verticalAlign=top;align=center;html=1;shape=mxgraph.aws3.rds;fillColor=#2E73B8;gradientColor=none;" vertex="1" parent="1">
          <mxGeometry x="443.75" y="-450" width="72" height="81" as="geometry" />
        </mxCell>
        <mxCell id="9RIisdlZwtpkyTJBOxY_-19" value="M6g Mysql" style="text;html=1;align=center;verticalAlign=middle;resizable=0;points=[];autosize=1;strokeColor=none;fontSize=14;" vertex="1" parent="1">
          <mxGeometry x="440" y="-350" width="80" height="20" as="geometry" />
        </mxCell>
        <mxCell id="9RIisdlZwtpkyTJBOxY_-20" value="" style="outlineConnect=0;dashed=0;verticalLabelPosition=bottom;verticalAlign=top;align=center;html=1;shape=mxgraph.aws3.ec2;fillColor=#F58534;gradientColor=none;" vertex="1" parent="1">
          <mxGeometry x="840" y="-611" width="76.5" height="93" as="geometry" />
        </mxCell>
        <mxCell id="9RIisdlZwtpkyTJBOxY_-21" value="" style="outlineConnect=0;dashed=0;verticalLabelPosition=bottom;verticalAlign=top;align=center;html=1;shape=mxgraph.aws3.ec2;fillColor=#F58534;gradientColor=none;" vertex="1" parent="1">
          <mxGeometry x="266.75" y="-611" width="76.5" height="93" as="geometry" />
        </mxCell>
        <mxCell id="9RIisdlZwtpkyTJBOxY_-30" value="" style="edgeStyle=orthogonalEdgeStyle;rounded=0;orthogonalLoop=1;jettySize=auto;html=1;fontSize=14;startArrow=classic;startFill=1;" edge="1" parent="1" source="9RIisdlZwtpkyTJBOxY_-22" target="9RIisdlZwtpkyTJBOxY_-25">
          <mxGeometry relative="1" as="geometry" />
        </mxCell>
        <mxCell id="9RIisdlZwtpkyTJBOxY_-22" value="Traffic scheduling service" style="text;html=1;align=center;verticalAlign=middle;resizable=0;points=[];autosize=1;strokeColor=none;fontSize=14;" vertex="1" parent="1">
          <mxGeometry x="220" y="-506" width="170" height="20" as="geometry" />
        </mxCell>
        <mxCell id="9RIisdlZwtpkyTJBOxY_-23" value="" style="outlineConnect=0;dashed=0;verticalLabelPosition=bottom;verticalAlign=top;align=center;html=1;shape=mxgraph.aws3.ec2;fillColor=#F58534;gradientColor=none;" vertex="1" parent="1">
          <mxGeometry x="752.25" y="-611" width="76.5" height="93" as="geometry" />
        </mxCell>
        <mxCell id="9RIisdlZwtpkyTJBOxY_-24" value="VIP Nodes" style="text;html=1;align=center;verticalAlign=middle;resizable=0;points=[];autosize=1;strokeColor=none;fontSize=14;" vertex="1" parent="1">
          <mxGeometry x="797.25" y="-506" width="80" height="20" as="geometry" />
        </mxCell>
        <mxCell id="9RIisdlZwtpkyTJBOxY_-25" value="" style="outlineConnect=0;dashed=0;verticalLabelPosition=bottom;verticalAlign=top;align=center;html=1;shape=mxgraph.aws3.redis;fillColor=#2E73B8;gradientColor=none;fontSize=14;" vertex="1" parent="1">
          <mxGeometry x="274.75" y="-441" width="60" height="63" as="geometry" />
        </mxCell>
        <mxCell id="9RIisdlZwtpkyTJBOxY_-26" value="Redis on EC2" style="text;html=1;align=center;verticalAlign=middle;resizable=0;points=[];autosize=1;strokeColor=none;fontSize=14;" vertex="1" parent="1">
          <mxGeometry x="255" y="-350" width="100" height="20" as="geometry" />
        </mxCell>
        <mxCell id="9RIisdlZwtpkyTJBOxY_-35" value="" style="outlineConnect=0;dashed=0;verticalLabelPosition=bottom;verticalAlign=top;align=center;html=1;shape=mxgraph.aws3.ec2;fillColor=#F58534;gradientColor=none;" vertex="1" parent="1">
          <mxGeometry x="600" y="-611" width="76.5" height="93" as="geometry" />
        </mxCell>
        <mxCell id="9RIisdlZwtpkyTJBOxY_-36" value="" style="edgeStyle=orthogonalEdgeStyle;rounded=0;orthogonalLoop=1;jettySize=auto;html=1;fontSize=14;startArrow=classic;startFill=1;" edge="1" parent="1" source="9RIisdlZwtpkyTJBOxY_-37" target="9RIisdlZwtpkyTJBOxY_-38">
          <mxGeometry relative="1" as="geometry" />
        </mxCell>
        <mxCell id="9RIisdlZwtpkyTJBOxY_-37" value="VIP Traffic &lt;br&gt;scheduling service" style="text;html=1;align=center;verticalAlign=middle;resizable=0;points=[];autosize=1;strokeColor=none;fontSize=14;" vertex="1" parent="1">
          <mxGeometry x="573.25" y="-516" width="130" height="40" as="geometry" />
        </mxCell>
        <mxCell id="9RIisdlZwtpkyTJBOxY_-38" value="" style="outlineConnect=0;dashed=0;verticalLabelPosition=bottom;verticalAlign=top;align=center;html=1;shape=mxgraph.aws3.redis;fillColor=#2E73B8;gradientColor=none;fontSize=14;" vertex="1" parent="1">
          <mxGeometry x="608" y="-441" width="60" height="63" as="geometry" />
        </mxCell>
        <mxCell id="9RIisdlZwtpkyTJBOxY_-39" value="Redis on EC2" style="text;html=1;align=center;verticalAlign=middle;resizable=0;points=[];autosize=1;strokeColor=none;fontSize=14;" vertex="1" parent="1">
          <mxGeometry x="588.25" y="-350" width="100" height="20" as="geometry" />
        </mxCell>
        <mxCell id="9RIisdlZwtpkyTJBOxY_-49" value="" style="edgeStyle=orthogonalEdgeStyle;rounded=0;orthogonalLoop=1;jettySize=auto;html=1;fontSize=14;startArrow=none;startFill=0;" edge="1" parent="1" source="9RIisdlZwtpkyTJBOxY_-46" target="9RIisdlZwtpkyTJBOxY_-15">
          <mxGeometry relative="1" as="geometry" />
        </mxCell>
        <mxCell id="9RIisdlZwtpkyTJBOxY_-46" value="" style="points=[[0,0,0],[0.25,0,0],[0.5,0,0],[0.75,0,0],[1,0,0],[0,1,0],[0.25,1,0],[0.5,1,0],[0.75,1,0],[1,1,0],[0,0.25,0],[0,0.5,0],[0,0.75,0],[1,0.25,0],[1,0.5,0],[1,0.75,0]];outlineConnect=0;fontColor=#232F3E;gradientColor=#F78E04;gradientDirection=north;fillColor=#D05C17;strokeColor=#ffffff;dashed=0;verticalLabelPosition=bottom;verticalAlign=top;align=center;html=1;fontSize=12;fontStyle=0;aspect=fixed;shape=mxgraph.aws4.resourceIcon;resIcon=mxgraph.aws4.elastic_load_balancing;" vertex="1" parent="1">
          <mxGeometry x="441" y="-710" width="78" height="78" as="geometry" />
        </mxCell>
        <mxCell id="9RIisdlZwtpkyTJBOxY_-50" value="ALB" style="text;html=1;align=center;verticalAlign=middle;resizable=0;points=[];autosize=1;strokeColor=none;fontSize=14;" vertex="1" parent="1">
          <mxGeometry x="524.75" y="-681" width="40" height="20" as="geometry" />
        </mxCell>
      </root>
    </mxGraphModel>
  </diagram>
</mxfile>
